<?xml version="1.0" encoding="UTF-8" standalone="no"?>
<!DOCTYPE svg PUBLIC "-//W3C//DTD SVG 1.1//EN" "http://www.w3.org/Graphics/SVG/1.1/DTD/svg11.dtd">
<svg width="100%" height="100%" viewBox="0 0 1357 734" version="1.1" xmlns="http://www.w3.org/2000/svg" xmlns:xlink="http://www.w3.org/1999/xlink" xml:space="preserve" xmlns:serif="http://www.serif.com/" style="fill-rule:evenodd;clip-rule:evenodd;stroke-linejoin:round;stroke-miterlimit:2;">
    <g id="Artboard1" transform="matrix(1.02414,0,0,1.12551,-137.3,-308.649)">
        <rect x="134.065" y="274.229" width="1324.91" height="651.542" style="fill:none;"/>
        <g transform="matrix(0.781146,0,0,0.849438,112.182,200.361)">
            <path d="M48.574,551.779L48.236,552.119L360,432.209C360,432.209 240,696.209 240,696.209C240,696.209 312,480.209 312,480.209L48,576.209L240,552.209C240,552.209 192,840.209 192,840.209L408,384.209L407.426,384.43L407.764,384.091L96,504C96,504 216,240 216,240C216,240 144,456 144,456L408,360L216,384C216,384 264,96 264,96L48,552L48.574,551.779Z" style="fill:rgb(23,206,213);"/>
        </g>
        <g transform="matrix(0.976433,0,0,0.888483,32.5047,195.467)">
            <g transform="matrix(37.7725,0,-0.770283,37.7725,-28571,-17392.2)">
                <path d="M780.184,471.494C779.752,471.494 779.358,471.384 779.002,471.164C778.646,470.944 778.362,470.652 778.15,470.288C777.938,469.924 777.832,469.522 777.832,469.082L777.832,468.53C777.832,468.49 777.852,468.47 777.892,468.47L779.236,468.47C779.268,468.47 779.284,468.49 779.284,468.53L779.284,469.082C779.284,469.346 779.372,469.572 779.548,469.76C779.724,469.948 779.936,470.042 780.184,470.042C780.432,470.042 780.644,469.946 780.82,469.754C780.996,469.562 781.084,469.338 781.084,469.082C781.084,468.786 780.892,468.53 780.508,468.314C780.38,468.242 780.18,468.13 779.908,467.978C779.636,467.826 779.38,467.682 779.14,467.546C778.7,467.29 778.374,466.968 778.162,466.58C777.95,466.192 777.844,465.754 777.844,465.266C777.844,464.818 777.952,464.416 778.168,464.06C778.384,463.704 778.67,463.422 779.026,463.214C779.382,463.006 779.768,462.902 780.184,462.902C780.608,462.902 780.998,463.008 781.354,463.22C781.71,463.432 781.994,463.716 782.206,464.072C782.418,464.428 782.524,464.826 782.524,465.266L782.524,466.25C782.524,466.282 782.508,466.298 782.476,466.298L781.132,466.298C781.1,466.298 781.084,466.282 781.084,466.25L781.072,465.266C781.072,464.986 780.984,464.758 780.808,464.582C780.632,464.406 780.424,464.318 780.184,464.318C779.936,464.318 779.724,464.412 779.548,464.6C779.372,464.788 779.284,465.01 779.284,465.266C779.284,465.53 779.34,465.75 779.452,465.926C779.564,466.102 779.768,466.27 780.064,466.43C780.104,466.454 780.182,466.496 780.298,466.556C780.414,466.616 780.54,466.684 780.676,466.76C780.812,466.836 780.934,466.902 781.042,466.958C781.15,467.014 781.216,467.05 781.24,467.066C781.64,467.29 781.956,467.564 782.188,467.888C782.42,468.212 782.536,468.61 782.536,469.082C782.536,469.538 782.43,469.948 782.218,470.312C782.006,470.676 781.722,470.964 781.366,471.176C781.01,471.388 780.616,471.494 780.184,471.494Z" style="fill:white;fill-rule:nonzero;"/>
            </g>
            <g transform="matrix(37.7725,0,-0.770283,37.7725,-28577,-17392.2)">
                <path d="M783.436,471.374C783.396,471.374 783.376,471.354 783.376,471.314L783.4,463.07C783.4,463.038 783.416,463.022 783.448,463.022L785.752,463.022C786.488,463.022 787.07,463.246 787.498,463.694C787.926,464.142 788.14,464.75 788.14,465.518C788.14,466.086 788.028,466.578 787.804,466.994C787.58,467.41 787.288,467.73 786.928,467.954C786.568,468.178 786.176,468.29 785.752,468.29L784.84,468.29L784.84,471.314C784.84,471.354 784.82,471.374 784.78,471.374L783.436,471.374ZM784.84,466.838L785.752,466.838C786.008,466.838 786.23,466.716 786.418,466.472C786.606,466.228 786.7,465.91 786.7,465.518C786.7,465.206 786.616,464.95 786.448,464.75C786.28,464.55 786.048,464.45 785.752,464.45L784.84,464.462L784.84,466.838Z" style="fill:white;fill-rule:nonzero;"/>
            </g>
            <g transform="matrix(37.7725,0,-0.770283,37.7725,-28571.3,-17392.2)">
                <path d="M787.852,471.314L789.34,463.07C789.348,463.038 789.368,463.022 789.4,463.022L791.14,463.022C791.172,463.022 791.192,463.038 791.2,463.07L792.628,471.314C792.636,471.354 792.62,471.374 792.58,471.374L791.248,471.374C791.216,471.374 791.196,471.354 791.188,471.314L791.056,470.438L789.424,470.438L789.292,471.314C789.284,471.354 789.264,471.374 789.232,471.374L787.9,471.374C787.868,471.374 787.852,471.354 787.852,471.314ZM789.664,469.154L790.816,469.154L790.324,465.782L790.252,465.338L790.204,465.782L789.664,469.154Z" style="fill:white;fill-rule:nonzero;"/>
            </g>
            <g transform="matrix(37.7725,0,-0.770283,37.7725,-28571,-17392.2)">
                <path d="M793.432,471.374C793.4,471.374 793.384,471.354 793.384,471.314L793.408,463.07C793.408,463.038 793.424,463.022 793.456,463.022L795.88,463.022C796.312,463.022 796.71,463.128 797.074,463.34C797.438,463.552 797.728,463.836 797.944,464.192C798.16,464.548 798.268,464.95 798.268,465.398C798.268,465.694 798.224,465.96 798.136,466.196C798.048,466.432 797.944,466.632 797.824,466.796C797.704,466.96 797.596,467.082 797.5,467.162C797.932,467.642 798.148,468.206 798.148,468.854L798.16,471.314C798.16,471.354 798.14,471.374 798.1,471.374L796.744,471.374C796.712,471.374 796.696,471.362 796.696,471.338L796.696,468.854C796.696,468.566 796.594,468.316 796.39,468.104C796.186,467.892 795.936,467.786 795.64,467.786L794.848,467.786L794.836,471.314C794.836,471.354 794.82,471.374 794.788,471.374L793.432,471.374ZM794.848,466.346L795.88,466.346C796.128,466.346 796.348,466.254 796.54,466.07C796.732,465.886 796.828,465.662 796.828,465.398C796.828,465.142 796.734,464.922 796.546,464.738C796.358,464.554 796.136,464.462 795.88,464.462L794.848,464.462L794.848,466.346Z" style="fill:white;fill-rule:nonzero;"/>
            </g>
            <g transform="matrix(37.7725,0,-0.770283,37.7725,-28571,-17392.2)">
                <path d="M799.216,471.374C799.184,471.374 799.168,471.354 799.168,471.314L799.192,463.082C799.192,463.042 799.208,463.022 799.24,463.022L800.584,463.022C800.616,463.022 800.632,463.042 800.632,463.082L800.632,465.926L802.516,463.07C802.54,463.038 802.568,463.022 802.6,463.022L803.98,463.022C804.012,463.022 804.02,463.038 804.004,463.07L801.928,466.382L804.256,471.326C804.272,471.358 804.252,471.374 804.196,471.374L802.732,471.374C802.692,471.374 802.668,471.358 802.66,471.326L801.04,467.798L800.62,468.458L800.62,471.314C800.62,471.354 800.604,471.374 800.572,471.374L799.216,471.374Z" style="fill:white;fill-rule:nonzero;"/>
            </g>
            <g transform="matrix(37.7725,0,-0.770283,37.7725,-28571,-17323.2)">
                <path d="M780.184,480.151C779.752,480.151 779.358,480.041 779.002,479.821C778.646,479.601 778.362,479.309 778.15,478.945C777.938,478.581 777.832,478.179 777.832,477.739L777.832,477.187C777.832,477.147 777.852,477.127 777.892,477.127L779.236,477.127C779.268,477.127 779.284,477.147 779.284,477.187L779.284,477.739C779.284,478.003 779.372,478.229 779.548,478.417C779.724,478.605 779.936,478.699 780.184,478.699C780.432,478.699 780.644,478.603 780.82,478.411C780.996,478.219 781.084,477.995 781.084,477.739C781.084,477.443 780.892,477.187 780.508,476.971C780.38,476.899 780.18,476.787 779.908,476.635C779.636,476.483 779.38,476.339 779.14,476.203C778.7,475.947 778.374,475.625 778.162,475.237C777.95,474.849 777.844,474.411 777.844,473.923C777.844,473.475 777.952,473.073 778.168,472.717C778.384,472.361 778.67,472.079 779.026,471.871C779.382,471.663 779.768,471.559 780.184,471.559C780.608,471.559 780.998,471.665 781.354,471.877C781.71,472.089 781.994,472.373 782.206,472.729C782.418,473.085 782.524,473.483 782.524,473.923L782.524,474.907C782.524,474.939 782.508,474.955 782.476,474.955L781.132,474.955C781.1,474.955 781.084,474.939 781.084,474.907L781.072,473.923C781.072,473.643 780.984,473.415 780.808,473.239C780.632,473.063 780.424,472.975 780.184,472.975C779.936,472.975 779.724,473.069 779.548,473.257C779.372,473.445 779.284,473.667 779.284,473.923C779.284,474.187 779.34,474.407 779.452,474.583C779.564,474.759 779.768,474.927 780.064,475.087C780.104,475.111 780.182,475.153 780.298,475.213C780.414,475.273 780.54,475.341 780.676,475.417C780.812,475.493 780.934,475.559 781.042,475.615C781.15,475.671 781.216,475.707 781.24,475.723C781.64,475.947 781.956,476.221 782.188,476.545C782.42,476.869 782.536,477.267 782.536,477.739C782.536,478.195 782.43,478.605 782.218,478.969C782.006,479.333 781.722,479.621 781.366,479.833C781.01,480.045 780.616,480.151 780.184,480.151Z" style="fill:white;fill-rule:nonzero;"/>
            </g>
            <g transform="matrix(37.7725,0,-0.770283,37.7725,-28571,-17323.2)">
                <path d="M784.84,480.031C784.808,480.031 784.792,480.011 784.792,479.971L784.792,473.131L783.232,473.131C783.192,473.131 783.172,473.111 783.172,473.071L783.184,471.727C783.184,471.695 783.2,471.679 783.232,471.679L787.792,471.679C787.832,471.679 787.852,471.695 787.852,471.727L787.852,473.071C787.852,473.111 787.836,473.131 787.804,473.131L786.232,473.131L786.244,479.971C786.244,480.011 786.228,480.031 786.196,480.031L784.84,480.031Z" style="fill:white;fill-rule:nonzero;"/>
            </g>
            <g transform="matrix(37.7725,0,-0.770283,37.7725,-28562.8,-17323.2)">
                <path d="M787.804,479.971L789.292,471.727C789.3,471.695 789.32,471.679 789.352,471.679L791.092,471.679C791.124,471.679 791.144,471.695 791.152,471.727L792.58,479.971C792.588,480.011 792.572,480.031 792.532,480.031L791.2,480.031C791.168,480.031 791.148,480.011 791.14,479.971L791.008,479.095L789.376,479.095L789.244,479.971C789.236,480.011 789.216,480.031 789.184,480.031L787.852,480.031C787.82,480.031 787.804,480.011 787.804,479.971ZM789.616,477.811L790.768,477.811L790.276,474.439L790.204,473.995L790.156,474.439L789.616,477.811Z" style="fill:white;fill-rule:nonzero;"/>
            </g>
            <g transform="matrix(37.7725,0,-0.770283,37.7725,-28564.1,-17323.2)">
                <path d="M795.628,480.151C795.188,480.151 794.79,480.041 794.434,479.821C794.078,479.601 793.796,479.307 793.588,478.939C793.38,478.571 793.276,478.159 793.276,477.703L793.288,473.959C793.288,473.519 793.39,473.117 793.594,472.753C793.798,472.389 794.078,472.097 794.434,471.877C794.79,471.657 795.188,471.547 795.628,471.547C796.068,471.547 796.464,471.655 796.816,471.871C797.168,472.087 797.448,472.377 797.656,472.741C797.864,473.105 797.968,473.511 797.968,473.959L797.968,474.511C797.968,474.543 797.952,474.559 797.92,474.559L796.576,474.559C796.544,474.559 796.528,474.543 796.528,474.511L796.528,473.959C796.528,473.695 796.442,473.467 796.27,473.275C796.098,473.083 795.884,472.987 795.628,472.987C795.34,472.987 795.12,473.085 794.968,473.281C794.816,473.477 794.74,473.703 794.74,473.959L794.74,477.703C794.74,477.999 794.826,478.239 794.998,478.423C795.17,478.607 795.38,478.699 795.628,478.699C795.884,478.699 796.098,478.597 796.27,478.393C796.442,478.189 796.528,477.959 796.528,477.703L796.528,477.151C796.528,477.119 796.544,477.103 796.576,477.103L797.932,477.103C797.964,477.103 797.98,477.119 797.98,477.151L797.98,477.703C797.98,478.159 797.874,478.571 797.662,478.939C797.45,479.307 797.168,479.601 796.816,479.821C796.464,480.041 796.068,480.151 795.628,480.151Z" style="fill:white;fill-rule:nonzero;"/>
            </g>
            <g transform="matrix(37.7725,0,-0.770283,37.7725,-28571,-17323.2)">
                <path d="M799.228,480.031C799.196,480.031 799.18,480.011 799.18,479.971L799.204,471.739C799.204,471.699 799.22,471.679 799.252,471.679L800.596,471.679C800.628,471.679 800.644,471.699 800.644,471.739L800.644,474.583L802.528,471.727C802.552,471.695 802.58,471.679 802.612,471.679L803.992,471.679C804.024,471.679 804.032,471.695 804.016,471.727L801.94,475.039L804.268,479.983C804.284,480.015 804.264,480.031 804.208,480.031L802.744,480.031C802.704,480.031 802.68,480.015 802.672,479.983L801.052,476.455L800.632,477.115L800.632,479.971C800.632,480.011 800.616,480.031 800.584,480.031L799.228,480.031Z" style="fill:white;fill-rule:nonzero;"/>
            </g>
        </g>
    </g>
</svg>
